#!OML:ASF G:\JayActor3\Patient Classification 1\Patient 1\Session 6\male.ASF
:FULLY-SPECIFIED
:DEGREES
1522
root 3.35998 16.2113 -22.5681 175.961 -48.1327 -180.425
lowerback -2.94856 -0.790705 3.77381
upperback 7.43107 -1.80471 1.5031
thorax 9.4613 -0.803119 -0.736202
lowerneck 3.52851 4.76676 6.72676
upperneck -5.3218 6.41161 -6.03037
head -1.8875 3.2124 -3.30044
rclavicle -4.73108e-014 -2.06736e-014
rhumerus -38.5401 4.76717 -91.1442
rradius 111.292
rwrist -20.5022
rhand -28.8818 -20.2269
rfingers 7.12502
rthumb -2.23757 -50.1949
lclavicle -4.73108e-014 -2.06736e-014
lhumerus -30.2442 8.07573 82.3523
lradius 30.3916
lwrist 26.5542
lhand -13.0524 11.4315
lfingers 7.12502
lthumb 13.0426 41.0037
rfemur -11.7018 -8.68653 22.5066
rtibia 41.7172
rfoot -32.6269 -17.7376
rtoes 11.6075
lfemur 6.70486 7.28104 -12.6635
ltibia 25.1594
lfoot -19.231 11.9571
ltoes -8.64348
1523
root 3.37668 16.2057 -22.6037 175.618 -48.7125 -180.209
lowerback -2.84921 -0.802317 3.9503
upperback 7.55077 -1.85069 1.55746
thorax 9.53249 -0.817931 -0.781215
lowerneck 3.65721 4.61805 6.75941
upperneck -5.23654 6.2309 -5.94853
head -1.89738 3.12296 -3.2795
rclavicle -6.24184e-014 3.4191e-014
rhumerus -38.3599 4.63448 -90.9768
rradius 111.096
rwrist -20.2735
rhand -29.2821 -20.292
rfingers 7.12502
rthumb -2.62414 -50.2556
lclavicle -6.24184e-014 3.4191e-014
lhumerus -30.2419 8.24463 82.2526
lradius 30.1076
lwrist 26.4461
lhand -13.0289 11.5053
lfingers 7.12502
lthumb 13.0654 41.0761
rfemur -11.3294 -8.94518 22.7524
rtibia 41.5831
rfoot -32.936 -17.8655
rtoes 11.9283
lfemur 6.60334 7.34853 -12.2632
ltibia 25.5127
lfoot -19.1086 11.6775
ltoes -8.92065
1524
root 3.39338 16.2019 -22.6398 175.319 -49.3025 -180.025
lowerback -2.76176 -0.815438 4.08845
upperback 7.65204 -1.89377 1.61277
thorax 9.5912 -0.833679 -0.80343
lowerneck 3.77615 4.45988 6.79262
upperneck -5.12942 6.03742 -5.86907
head -1.89901 3.02728 -3.25803
rclavicle 3.95581e-014 -1.35174e-014
rhumerus -38.2342 4.48028 -90.8207
rradius 110.897
rwrist -20.0892
rhand -29.7606 -20.3839
rfingers 7.12502
rthumb -3.08625 -50.3413
lclavicle 3.95581e-014 -1.35174e-014
lhumerus -30.2498 8.42171 82.1585
lradius 29.8157
lwrist 26.3634
lhand -12.9813 11.6352
lfingers 7.12502
lthumb 13.1112 41.2031
rfemur -10.9745 -9.17664 22.9796
rtibia 41.4358
rfoot -33.2679 -17.9953
rtoes 12.3002
lfemur 6.46144 7.41462 -11.893
ltibia 25.8756
lfoot -18.963 11.3968
ltoes -9.19286
1525
root 3.40992 16.1998 -22.6759 175.072 -49.9044 -179.873
lowerback -2.69963 -0.830854 4.19461
upperback 7.73746 -1.93632 1.66788
thorax 9.64801 -0.850813 -0.808238
lowerneck 3.87122 4.29715 6.82202
upperneck -5.00211 5.83636 -5.79218
head -1.89011 2.9278 -3.23488
rclavicle 1.94809e-014 8.74653e-015
rhumerus -38.163 4.31193 -90.6809
rradius 110.707
rwrist -19.9606
rhand -30.3354 -20.507
rfingers 7.12502
rthumb -3.64138 -50.4556
lclavicle 1.94809e-014 8.74653e-015
lhumerus -30.2673 8.62495 82.0612
lradius 29.5275
lwrist 26.2947
lhand -12.8702 11.85
lfingers 7.12502
lthumb 13.2184 41.411
rfemur -10.6471 -9.38595 23.1891
rtibia 41.2753
rfoot -33.6068 -18.1412
rtoes 12.6778
lfemur 6.26894 7.47066 -11.5555
ltibia 26.2532
lfoot -18.7889 11.1158
ltoes -9.46646
1526
root 3.42608 16.1995 -22.7121 174.85 -50.5128 -179.718
lowerback -2.66518 -0.846941 4.29694
upperback 7.80875 -1.9794 1.72738
thorax 9.7059 -0.868061 -0.806678
lowerneck 3.93756 4.1304 6.83875
upperneck -4.86062 5.62757 -5.71194
head -1.87211 2.82433 -3.20646
rclavicle -1.09729e-013 4.29375e-014
rhumerus -38.1431 4.13162 -90.5587
rradius 110.532
rwrist -19.8771
rhand -30.9418 -20.6607
rfingers 7.12502
rthumb -4.2269 -50.5985
lclavicle -1.09729e-013 4.29375e-014
lhumerus -30.2936 8.86897 81.9515
lradius 29.2441
lwrist 26.2174
lhand -12.7109 12.0973
lfingers 7.12502
lthumb 13.3719 41.6482
rfemur -10.3466 -9.57142 23.4062
rtibia 41.0993
rfoot -33.9531 -18.3036
rtoes 13.0615
lfemur 6.02204 7.51595 -11.2249
ltibia 26.6557
lfoot -18.5857 10.8271
ltoes -9.77068
1527
root 3.44143 16.2005 -22.7481 174.655 -51.1272 -179.567
lowerback -2.66062 -0.863241 4.39681
upperback 7.86977 -2.02302 1.78976
thorax 9.77039 -0.885218 -0.801242
lowerneck 3.97548 3.9635 6.83321
upperneck -4.71668 5.41551 -5.62308
head -1.84891 2.71898 -3.1697
rclavicle -1.25234e-014 2.78299e-014
rhumerus -38.1692 3.9435 -90.453
rradius 110.375
rwrist -19.8453
rhand -31.4339 -20.8507
rfingers 7.12502
rthumb -4.70208 -50.7785
lclavicle -1.25234e-014 2.78299e-014
lhumerus -30.3275 9.1476 81.8326
lradius 28.9632
lwrist 26.13
lhand -12.5358 12.3216
lfingers 7.12502
lthumb 13.5407 41.8613
rfemur -10.0674 -9.74677 23.6227
rtibia 40.9066
rfoot -34.2975 -18.4764
rtoes 13.4321
lfemur 5.72314 7.54787 -10.9054
ltibia 27.0906
lfoot -18.3577 10.5239
ltoes -10.0918
1528
root 3.45591 16.2027 -22.7839 174.476 -51.7435 -179.402
lowerback -2.67037 -0.88052 4.50556
upperback 7.90658 -2.06702 1.85854
thorax 9.81644 -0.901856 -0.793994
lowerneck 3.99389 3.79426 6.80832
upperneck -4.56357 5.19784 -5.53327
head -1.81977 2.61094 -3.12795
rclavicle -4.87022e-014 7.15625e-015
rhumerus -38.2677 3.75219 -90.3627
rradius 110.244
rwrist -19.8551
rhand -31.7834 -21.0563
rfingers 7.12502
rthumb -5.03958 -50.9763
lclavicle -4.87022e-014 7.15625e-015
lhumerus -30.3956 9.44881 81.7069
lradius 28.6887
lwrist 26.0459
lhand -12.3933 12.4877
lfingers 7.12502
lthumb 13.678 42.0182
rfemur -9.81094 -9.91454 23.849
rtibia 40.6961
rfoot -34.6372 -18.6563
rtoes 13.797
lfemur 5.36742 7.56825 -10.5844
ltibia 27.5651
lfoot -18.1017 10.1983
ltoes -10.4441
1529
root 3.46936 16.2059 -22.8194 174.311 -52.3563 -179.224
lowerback -2.6988 -0.895684 4.62766
upperback 7.92441 -2.10842 1.93258
thorax 9.8525 -0.916075 -0.788485
lowerneck 4.00195 3.62061 6.76521
upperneck -4.42412 4.97163 -5.44714
head -1.79383 2.49867 -3.08396
rclavicle 5.02925e-014 4.13472e-014
rhumerus -38.4226 3.55771 -90.2838
rradius 110.137
rwrist -19.9009
rhand -31.93 -21.28
rfingers 7.12502
rthumb -5.18115 -51.1967
lclavicle 5.02925e-014 4.13472e-014
lhumerus -30.4924 9.75512 81.5828
lradius 28.4209
lwrist 25.9717
lhand -12.3231 12.5613
lfingers 7.12502
lthumb 13.7457 42.0873
rfemur -9.5755 -10.0802 24.083
rtibia 40.4686
rfoot -34.969 -18.8328
rtoes 14.16
lfemur 4.95757 7.58473 -10.2604
ltibia 28.0813
lfoot -17.8211 9.85002
ltoes -10.8329
1530
root 3.48171 16.2102 -22.8546 174.162 -52.9707 -179.043
lowerback -2.74716 -0.912614 4.75538
upperback 7.92934 -2.15274 2.01109
thorax 9.886 -0.931137 -0.781976
lowerneck 3.9996 3.4457 6.69941
upperneck -4.30679 4.74057 -5.36626
head -1.7736 2.384 -3.03771
rclavicle -3.3197e-014 5.1684e-014
rhumerus -38.6185 3.36798 -90.2129
rradius 110.048
rwrist -19.971
rhand -31.9047 -21.4798
rfingers 7.12502
rthumb -5.15674 -51.3971
lclavicle -3.3197e-014 5.1684e-014
lhumerus -30.6114 10.0801 81.4609
lradius 28.1565
lwrist 25.8948
lhand -12.353 12.5142
lfingers 7.12502
lthumb 13.7168 42.0421
rfemur -9.35465 -10.2539 24.3137
rtibia 40.2255
rfoot -35.296 -18.9925
rtoes 14.5324
lfemur 4.49693 7.59695 -9.93833
ltibia 28.6413
lfoot -17.5163 9.46816
ltoes -11.2183
1531
root 3.4931 16.2152 -22.8891 174.026 -53.5804 -178.857
lowerback -2.80383 -0.931366 4.89349
upperback 7.91862 -2.19943 2.09291
thorax 9.9067 -0.946625 -0.778006
lowerneck 3.99028 3.27268 6.60647
upperneck -4.21528 4.50916 -5.28417
head -1.76071 2.26909 -2.98642
rclavicle -3.4191e-014 -1.59028e-015
rhumerus -38.8535 3.19112 -90.1506
rradius 109.974
rwrist -20.06
rhand -31.8472 -21.6558
rfingers 7.12502
rthumb -5.1012 -51.5744
lclavicle -3.4191e-014 -1.59028e-015
lhumerus -30.7632 10.42 81.3407
lradius 27.9036
lwrist 25.8258
lhand -12.4254 12.3984
lfingers 7.12502
lthumb 13.647 41.931
rfemur -9.14801 -10.4424 24.539
rtibia 39.9689
rfoot -35.6033 -19.1377
rtoes 14.889
lfemur 3.98902 7.61486 -9.61677
ltibia 29.2463
lfoot -17.1839 9.05826
ltoes -11.6323
1532
root 3.50362 16.2211 -22.9226 173.904 -54.1815 -178.674
lowerback -2.85994 -0.952139 5.03848
upperback 7.89422 -2.24812 2.17677
thorax 9.91153 -0.962793 -0.775768
lowerneck 3.98554 3.10559 6.48954
upperneck -4.16222 4.28329 -5.20471
head -1.76076 2.15695 -2.9327
rclavicle -7.03698e-014 1.59028e-014
rhumerus -39.1214 3.03681 -90.094
rradius 109.913
rwrist -20.1573
rhand -31.8519 -21.7768
rfingers 7.12502
rthumb -5.10572 -51.6953
lclavicle -7.03698e-014 1.59028e-014
lhumerus -30.9424 10.7817 81.2175
lradius 27.6584
lwrist 25.7662
lhand -12.4761 12.2442
lfingers 7.12502
lthumb 13.5981 41.7801
rfemur -8.95344 -10.6461 24.7517
rtibia 39.7023
rfoot -35.8854 -19.2687
rtoes 15.2182
lfemur 3.43729 7.64154 -9.30006
ltibia 29.8973
lfoot -16.8305 8.6169
ltoes -12.0256
1533
root 3.51382 16.2276 -22.9548 173.792 -54.7669 -178.489
lowerback -2.91025 -0.974032 5.19426
upperback 7.85897 -2.29808 2.26318
thorax 9.90048 -0.979206 -0.776706
lowerneck 3.98869 2.94486 6.34616
upperneck -4.15631 4.06345 -5.12627
head -1.77714 2.04778 -2.8758
rclavicle -1.59028e-015 1.43125e-014
rhumerus -39.4074 2.9161 -90.0439
rradius 109.861
rwrist -20.2751
rhand -31.9306 -21.8529
rfingers 7.12502
rthumb -5.18168 -51.7696
lclavicle -1.59028e-015 1.43125e-014
lhumerus -31.1437 11.168 81.0882
lradius 27.424
lwrist 25.7243
lhand -12.4718 12.0941
lfingers 7.12502
lthumb 13.6023 41.6297
rfemur -8.77518 -10.8623 24.9569
rtibia 39.4302
rfoot -36.1381 -19.3863
rtoes 15.5191
lfemur 2.8413 7.68403 -8.98372
ltibia 30.5959
lfoot -16.4553 8.14344
ltoes -12.3426
1534
root 3.52405 16.2345 -22.9854 173.69 -55.3256 -178.312
lowerback -2.93973 -0.994811 5.35521
upperback 7.81369 -2.34479 2.35097
thorax 9.86571 -0.99439 -0.778071
lowerneck 4.00568 2.79122 6.18745
upperneck -4.19909 3.8511 -5.05854
head -1.81098 1.94249 -2.82122
rclavicle 1.37161e-014 1.74931e-014
rhumerus -39.7173 2.83205 -89.9982
rradius 109.827
rwrist -20.4034
rhand -32.0604 -21.8829
rfingers 7.12502
rthumb -5.307 -51.7964
lclavicle 1.37161e-014 1.74931e-014
lhumerus -31.3688 11.573 80.9506
lradius 27.2069
lwrist 25.6882
lhand -12.3978 11.9631
lfingers 7.12502
lthumb 13.6736 41.494
rfemur -8.61312 -11.0804 25.1504
rtibia 39.1594
rfoot -36.3551 -19.5019
rtoes 15.7701
lfemur 2.20835 7.75378 -8.67205
ltibia 31.3423
lfoot -16.0537 7.65112
ltoes -12.6225
1535
root 3.53462 16.2417 -23.0143 173.61 -55.8501 -178.152
lowerback -2.95209 -1.00848 5.51704
upperback 7.76429 -2.38029 2.43727
thorax 9.81653 -1.00452 -0.779806
lowerneck 4.03397 2.64434 6.01472
upperneck -4.29452 3.6458 -4.99516
head -1.86325 1.84066 -2.76696
rclavicle -8.82604e-014 3.57812e-014
rhumerus -40.0288 2.78482 -89.9604
rradius 109.814
rwrist -20.5997
rhand -32.2025 -21.8958
rfingers 7.12502
rthumb -5.44423 -51.8058
lclavicle -8.82604e-014 3.57812e-014
lhumerus -31.6012 11.956 80.8232
lradius 27.0072
lwrist 25.7098
lhand -12.2809 11.8679
lfingers 7.12502
lthumb 13.7863 41.3911
rfemur -8.47473 -11.2888 25.3293
rtibia 38.8979
rfoot -36.545 -19.6062
rtoes 15.9981
lfemur 1.53595 7.85424 -8.37246
ltibia 32.1372
lfoot -15.6324 7.14684
ltoes -12.8091
